<svg xmlns="http://www.w3.org/2000/svg" viewBox="0 0 48 48" id="coin">
  <path fill="#5aa692" d="M25 19.999h20a2 2 0 0 1 2 2v18a2 2 0 0 1-2 2H10"></path>
  <path fill="#6dc6b0" d="m25 37.968 14.969.031a3 3 0 0 1 3-3l.016-7.984a3 3 0 0 1-3-3L12 23.999"></path>
  <path d="M27.994 19.999h-2v2a1 1 0 0 1-1 1h-2.04l-1.365 2.002H25a1 1 0 0 1 1 1v2a1 1 0 0 1-1 1h-5a1 1 0 1 0 0 2h6a1 1 0 0 1 1 1v2a1 1 0 0 1-1 1h-.987l-.019-.002H21a1 1 0 0 0-1 1v.002a1 1 0 0 0 1 1h4.004a1 1 0 0 1 .99.998v2a1 1 0 0 1-1 1h-12a1 1 0 0 0-1 1h15.22c.48-.532.78-1.229.78-2v-2c0-.535-.152-1.031-.399-1.467A2.993 2.993 0 0 0 29 34.001v-2a2.994 2.994 0 0 0-1.401-2.529c.248-.437.401-.934.401-1.471v-2a2.98 2.98 0 0 0-.784-2.005 2.98 2.98 0 0 0 .778-1.997v-2z" opacity=".1"></path>
  <path d="M21.59 25.001H25a1 1 0 0 1 1 1v2a1 1 0 0 1-1 1h-5a1 1 0 1 0 0 2h6a1 1 0 0 1 1 1v2a1 1 0 0 1-1 1h-.987l-.019-.002h-2.757l1.863 2.002h.904a.995.995 0 0 1 .984.969l2.004.004a2.98 2.98 0 0 0-.397-1.442A2.993 2.993 0 0 0 29 34.001v-2a2.994 2.994 0 0 0-1.401-2.529c.248-.437.401-.934.401-1.471v-2c0-.768-.299-1.462-.776-1.993l-4.956-.003-.678.996z" opacity=".1"></path>
  <path fill="#c7e7df" d="M26 27.499a3.5 3.5 0 1 1 0 7"></path>
  <path d="M29 32.776v-.775a2.994 2.994 0 0 0-1.401-2.529c.229-.402.371-.858.393-1.347a3.476 3.476 0 0 0-1.991-.626v.502a1 1 0 0 1-1 .999h-.423l-.578.406 2 1.595a1 1 0 0 1 1 1v2a.994.994 0 0 1-.072.358A3.486 3.486 0 0 0 29 32.776z" opacity=".2"></path>
  <path fill="#f2d26c" d="M24 30.001h-5v5.998l-8.006 6h12c1.1 0 2-.9 2-2v-2a2.005 2.005 0 0 0-1.983-1.998H24c1.1 0 2-.9 2-2v-2c0-1.1-.9-2-2-2zm-11.006-6.002 6.006 6h3.994c1.1 0 2-.9 2-2v-2c0-1.1-.9-2-2-2 1.1 0 2-.9 2-2v-2c0-1.1-.9-2-2-2 1.1 0 2-.9 2-2v-2A2.006 2.006 0 0 0 23.006 12 2.005 2.005 0 0 0 25 10.001v-2c0-1.1-.9-2-2-2H11c-1.1 0-2 .9-2 2v2c0 1.096.894 1.992 1.988 1.999a2.005 2.005 0 0 0-1.994 1.999v2c0 1.1.9 2 2 2-1.1 0-2 .9-2 2v2c0 1.1.9 2 2 2h2z"></path>
  <path fill="#d3a93e" d="M20 32.999c0 3.961-2.322 7.382-5.67 9h3.581c2.501-2.201 4.089-5.415 4.089-9 0-1.037-.146-2.038-.394-2.998H19.54c.298.947.46 1.954.46 2.998zm-10-12c-.34 0-.674.023-1.006.051v.949c0 .38.113.732.299 1.036.235-.017.468-.036.707-.036 4.469 0 8.261 2.948 9.539 7h2.066c-1.337-5.167-6.025-9-11.605-9z"></path>
  <circle cx="10" cy="32.999" r="9" fill="#f2d26c"></circle>
  <circle cx="10" cy="32.999" r="5.5" fill="#f8e391"></circle>
  <circle cx="10" cy="32.999" r="9" fill="none" stroke="#8b5e3c" stroke-miterlimit="10" stroke-width="2"></circle>
  <path fill="#010101" d="M10.003 38.999a1 1 0 0 0 .999-1.001v-.184a2.995 2.995 0 0 0 1.999-2.815c0-1.654-1.346-3-3-3l-.011.002a.997.997 0 0 1-.016-1.992c.01 0 .018.006.028.006h.001c.009 0 .017-.005.027-.005a.997.997 0 0 1 .971.994 1 1 0 1 0 2 0 2.995 2.995 0 0 0-2-2.816v-.19a1 1 0 0 0-1-.999H10A1 1 0 0 0 9.001 28v.188a2.995 2.995 0 0 0-2 2.816c0 1.654 1.346 3 3 3l.011-.002a1 1 0 0 1 .989.998.996.996 0 0 1-.961.992c-.014-.001-.025-.008-.039-.008H10c-.013 0-.025.007-.038.008A.997.997 0 0 1 9.001 35a1 1 0 1 0-2 0c0 1.302.839 2.402 2.001 2.816v.185a1 1 0 0 0 1.001.998z"></path>
  <circle cx="38" cy="30.999" r="2" fill="#c7e7df"></circle>
  <path fill="#010101" d="M27 33.287v-1.286c0-.601-.193-1.149-.5-1.618V35.6c.036-.057.085-.104.118-.163.368-.369.382-1.284.382-2.15z"></path>
  <path fill="#444a54" d="M45 18.999H24.5v2H45c.552 0 1 .449 1 1v18c0 .551-.448 1-1 1H21.5v2H45c1.654 0 3-1.346 3-3v-18c0-1.654-1.346-3-3-3zm-34.997 20a1 1 0 0 0 .999-1.001v-.184a2.995 2.995 0 0 0 1.999-2.815c0-1.654-1.346-3-3-3l-.011.002a.997.997 0 0 1-.016-1.992c.01 0 .018.006.028.006h.001c.009 0 .017-.005.027-.005a.997.997 0 0 1 .971.994 1 1 0 1 0 2 0 2.995 2.995 0 0 0-2-2.816v-.19a1 1 0 0 0-1-.999H10A1 1 0 0 0 9.001 28v.188a2.995 2.995 0 0 0-2 2.816c0 1.654 1.346 3 3 3l.011-.002a1 1 0 0 1 .989.998.996.996 0 0 1-.961.992c-.014-.001-.025-.008-.039-.008H10c-.013 0-.025.007-.038.008A.997.997 0 0 1 9.001 35a1 1 0 1 0-2 0c0 1.302.839 2.402 2.001 2.816v.185a1 1 0 0 0 1.001.998z"></path>
  <path fill="none" stroke="#444a54" stroke-miterlimit="10" stroke-width="2" d="M22.994 12.001h-12a2 2 0 0 1-2-2v-2a2 2 0 0 1 2-2h12a2 2 0 0 1 2 2v2a2 2 0 0 1-2 2zm0 6h-12a2 2 0 0 1-2-2v-2a2 2 0 0 1 2-2h12a2 2 0 0 1 2 2v2a2 2 0 0 1-2 2zm0 6h-12a2 2 0 0 1-2-2v-2a2 2 0 0 1 2-2h12a2 2 0 0 1 2 2v2a2 2 0 0 1-2 2z"></path>
  <circle cx="10" cy="32.999" r="9" fill="none" stroke="#444a54" stroke-miterlimit="10" stroke-width="2"></circle>
  <path fill="none" stroke="#444a54" stroke-linecap="round" stroke-linejoin="round" stroke-miterlimit="10" stroke-width="2" d="M22.994 24.001h-12c-.11 0-.217.015-.322.032a8.993 8.993 0 0 1 7.806 5.968h4.516a2 2 0 0 0 2-2v-2a2 2 0 0 0-2-2z"></path>
  <path fill="none" stroke="#444a54" stroke-miterlimit="10" stroke-width="2" d="M23.994 30.001h-5.516c.332.939.522 1.945.522 2.998A8.962 8.962 0 0 1 18.476 36h5.517a2 2 0 0 0 2-2v-2a1.998 1.998 0 0 0-1.999-1.999z"></path>
  <path fill="none" stroke="#444a54" stroke-linecap="round" stroke-linejoin="round" stroke-miterlimit="10" stroke-width="2" d="M22.994 36.001h-4.517a8.994 8.994 0 0 1-7.823 5.966c.111.019.224.034.341.034h12a2 2 0 0 0 2-2v-2a2.002 2.002 0 0 0-2.001-2z"></path>
</svg>
