<svg xmlns="http://www.w3.org/2000/svg" id="note" viewBox="0 0 48 48"><path fill="#58bf97" d="M43 35H5c-1.1 0-2-.9-2-2V15c0-1.1.9-2 2-2h38c1.1 0 2 .9 2 2v18c0 1.1-.9 2-2 2z"/><path fill="#38a378" d="M41 20c-1.7 0-3-1.3-3-3H10c0 1.7-1.3 3-3 3v8c1.7 0 3 1.3 3 3h28c0-1.7 1.3-3 3-3v-8z"/><circle cx="24" cy="24" r="3.5" fill="#58bf97"/><path d="M43 12H5c-1.7 0-3 1.3-3 3v18c0 1.7 1.3 3 3 3h38c1.7 0 3-1.3 3-3V15c0-1.7-1.3-3-3-3zm1 21c0 .6-.4 1-1 1H5c-.6 0-1-.4-1-1V15c0-.6.4-1 1-1h38c.6 0 1 .4 1 1v18z"/><path d="M41 19c-1.1 0-2-.9-2-2 0-.6-.4-1-1-1H10c-.3 0-.5.1-.7.3-.2.2-.3.4-.3.7 0 1.1-.9 2-2 2-.6 0-1 .4-1 1v8c0 .3.1.5.3.7.2.2.4.3.7.3 1.1 0 2 .9 2 2 0 .6.4 1 1 1h28c.3 0 .5-.1.7-.3s.3-.4.3-.7c0-1.1.9-2 2-2 .6 0 1-.4 1-1v-8c0-.3-.1-.5-.3-.7s-.4-.3-.7-.3zm-1 8.1c-1.4.4-2.5 1.5-2.9 2.9H10.9c-.4-1.4-1.5-2.5-2.9-2.9v-6.2c1.4-.4 2.5-1.5 2.9-2.9h26.2c.4 1.4 1.5 2.5 2.9 2.9v6.2z"/><circle cx="12" cy="24" r="2"/><path d="M24 19.5c-2.5 0-4.5 2-4.5 4.5s2 4.5 4.5 4.5 4.5-2 4.5-4.5-2-4.5-4.5-4.5zm0 7c-1.4 0-2.5-1.1-2.5-2.5s1.1-2.5 2.5-2.5 2.5 1.1 2.5 2.5-1.1 2.5-2.5 2.5z"/><circle cx="36" cy="24" r="2"/></svg>