<svg xmlns="http://www.w3.org/2000/svg" id="wallet" viewBox="0 0 48 48"><path fill="#5aa692" d="M6 42.742v-38a2 2 0 0 1 2-2h18a2 2 0 0 1 2 2v38a2 2 0 0 1-2 2H8a2 2 0 0 1-2-2z"/><path fill="#6dc6b0" d="M20.984 40.726a3 3 0 0 1 3-3L24 9.742a3 3 0 0 1-3-3l-7.969-.015a3 3 0 0 1-3 3L10 37.711a3 3 0 0 1 3 3l7.984.015z"/><circle cx="17" cy="23.742" r="3.5" fill="#c7e7df"/><path fill="#444a54" d="M29 42.742v-38c0-1.654-1.346-3-3-3H8c-1.654 0-3 1.346-3 3v38c0 1.654 1.346 3 3 3h18c1.654 0 3-1.346 3-3zm-21 1c-.551 0-1-.448-1-1v-38c0-.551.449-1 1-1h18c.551 0 1 .449 1 1v38c0 .552-.449 1-1 1H8z"/><circle cx="17" cy="11.742" r="2" fill="#c7e7df"/><circle cx="17" cy="35.742" r="2" fill="#c7e7df"/><path fill="#5aa692" d="M7.318 38.56 18.961 2.387a2 2 0 0 1 2.517-1.291l17.134 5.515a2 2 0 0 1 1.291 2.517L28.26 45.301a2 2 0 0 1-2.517 1.291L8.609 41.076a2 2 0 0 1-1.291-2.516z"/><path fill="#6dc6b0" d="M22.2 41.232a3.001 3.001 0 0 1 3.775-1.937l8.589-26.634a3.001 3.001 0 0 1-1.937-3.775L25.046 6.43a3.001 3.001 0 0 1-3.775 1.937l-8.604 26.629a3.001 3.001 0 0 1 1.937 3.775l7.596 2.461z"/><circle cx="23.611" cy="23.844" r="3.5" fill="#c7e7df" transform="rotate(-72.158 23.61 23.844)"/><path fill="#444a54" d="M29.212 45.607 40.855 9.435a3.003 3.003 0 0 0-1.937-3.775L21.784.145a3.003 3.003 0 0 0-3.775 1.937L6.366 38.253a3.003 3.003 0 0 0 1.937 3.775l17.134 5.515a3.003 3.003 0 0 0 3.775-1.936zM8.916 40.125a1 1 0 0 1-.646-1.258L19.913 2.694a1.002 1.002 0 0 1 1.258-.646l17.134 5.515c.525.169.814.734.646 1.258L27.308 44.994a1.002 1.002 0 0 1-1.258.646L8.916 40.125z"/><circle cx="27.288" cy="12.421" r="2" fill="#c7e7df" transform="rotate(-72.158 27.288 12.421)"/><circle cx="19.934" cy="35.267" r="2" fill="#c7e7df" transform="rotate(-72.158 19.934 35.267)"/><path fill="#d79480" d="M38 21.142H10c-2.2 0-4 1.8-4 4v18c0 2.2 1.8 4 4 4h28c2.2 0 4-1.8 4-4v-18c0-2.2-1.8-4-4-4z"/><path fill="#ffd28e" d="M41 41.142h-8.105c-2.151 0-3.895-1.791-3.895-4s1.744-4 3.895-4H41"/><ellipse cx="32.974" cy="37.01" fill="#444a54" rx=".974" ry="1"/><path fill="#444a54" d="M38 20H10c-2.757 0-5 2.243-5 5v18c0 2.757 2.243 5 5 5h28c2.757 0 5-2.243 5-5V25c0-2.757-2.243-5-5-5zm0 26H10c-1.654 0-3-1.346-3-3V25c0-1.654 1.346-3 3-3h28c1.654 0 3 1.346 3 3v7.01h-8c-2.757 0-5 2.243-5 5s2.243 5 5 5h8V43c0 1.654-1.346 3-3 3zm3-11.99v6h-8c-1.654 0-3-1.346-3-3s1.346-3 3-3h8z"/></svg>